<svg xmlns="http://www.w3.org/2000/svg" fill="#FFFFFF" height="16" viewBox="0 0 16 16" width="16"><g fill="#FFFFFF"><path d="m7 13c.08516 0 .1699-.0018.25419-.0053-.16463-.4677-.25419-.9707-.25419-1.4947 0-.3443.03867-.6796.11191-1.0018-.03715.0012-.07445.0018-.11188.0018-1.03663 0-1.96852-.4513-2.60868-1.16654-.18416-.20577-.16665-.52186.03911-.70603.20577-.18416.52186-.16665.70603.03911.45848.51226 1.12317.83346 1.86354.83346.16847 0 .33303-.01663.49213-.04836.74537-1.45547 2.26027-2.45164 4.00784-2.45164.524 0 1.027.08956 1.4947.25419.0035-.08429.0053-.16903.0053-.25419 0-3.31371-2.6863-6-6-6-3.31371 0-6 2.68629-6 6 0 3.3137 2.68629 6 6 6zm-1.74997-6.25c-.41421 0-.75-.33579-.75-.75s.33579-.75.75-.75.75.33579.75.75-.33579.75-.75.75zm3.5 0c-.41421 0-.75-.33579-.75-.75s.33579-.75.75-.75.75.33579.75.75-.33579.75-.75.75z" fill="#FFFFFF" /><path d="m15 11.5c0 1.933-1.567 3.5-3.5 3.5s-3.5-1.567-3.5-3.5 1.567-3.5 3.5-3.5 3.5 1.567 3.5 3.5zm-3-2c0-.27614-.2239-.5-.5-.5s-.5.22386-.5.5v1.5h-1.5c-.27614 0-.5.2239-.5.5s.22386.5.5.5h1.5v1.5c0 .2761.2239.5.5.5s.5-.2239.5-.5v-1.5h1.5c.2761 0 .5-.2239.5-.5s-.2239-.5-.5-.5h-1.5z" fill="#FFFFFF" /></g></svg>