<svg xmlns="http://www.w3.org/2000/svg" version="1.1" id="Layer_1" x="0px" y="0px" viewBox="0 0 512 512" style="enable-background:new 0 0 512 512;" xml:space="preserve" fill="#FFFFFF">
<g id="XMLID_2_" fill="#FFFFFF">
	<path id="XMLID_6_" d="M426.4,384c23.3,0,42.8-19.5,42.8-42.8V128c0-23.3-19.5-42.8-42.8-42.8H85.6c-23.3,0-42.8,18.6-42.8,42.8   v213.2c0,23.3,18.6,42.8,42.8,42.8H0v42.8h512V384C512,384,426.4,384,426.4,384z M277.4,308.6v-46.5c-59.6,0-98.7,17.7-128.5,57.7   C161,263,193.6,206.2,277.4,194.1v-45.6l85.6,79.1L277.4,308.6z" fill="#FFFFFF" />
</g>
</svg>